<?xml version="1.0" encoding="UTF-8" standalone="no"?>
<!DOCTYPE svg PUBLIC "-//W3C//DTD SVG 1.1//EN"
 "http://www.w3.org/Graphics/SVG/1.1/DTD/svg11.dtd">
<!-- Generated by graphviz version 2.36.0 (20140111.2315)
 -->
<!-- Title: Genealogy tree of programming languages &#45; Algol &amp; Fortran family Pages: 1 -->
<svg width="504pt" height="421pt"
 viewBox="0.00 0.00 504.00 421.34" xmlns="http://www.w3.org/2000/svg" xmlns:xlink="http://www.w3.org/1999/xlink">
<g id="graph0" class="graph" transform="scale(0.504 0.504) rotate(0) translate(4 832)">
<title>Genealogy tree of programming languages &#45; Algol &amp; Fortran family</title>
<polygon fill="white" stroke="none" points="-4,4 -4,-832 996,-832 996,4 -4,4"/>
<!-- Algol 60 -->
<g id="node1" class="node"><title>Algol 60</title>
<ellipse fill="white" stroke="white" cx="566" cy="-234" rx="42.4939" ry="18"/>
<text text-anchor="middle" x="566" y="-230.3" font-family="Times,serif" font-size="14.00">Algol 60</text>
</g>
<!-- CPL (1963) -->
<g id="node2" class="node"><title>CPL (1963)</title>
<ellipse fill="white" stroke="white" cx="434" cy="-306" rx="52.7911" ry="18"/>
<text text-anchor="middle" x="434" y="-302.3" font-family="Times,serif" font-size="14.00">CPL (1963)</text>
</g>
<!-- Algol 60&#45;&gt;CPL (1963) -->
<g id="edge1" class="edge"><title>Algol 60&#45;&gt;CPL (1963)</title>
<path fill="none" stroke="black" d="M540.549,-248.497C520.532,-259.112 492.391,-274.035 470.055,-285.88"/>
<polygon fill="black" stroke="black" points="468.385,-282.804 461.19,-290.581 471.665,-288.988 468.385,-282.804"/>
</g>
<!-- Algol 68 -->
<g id="node6" class="node"><title>Algol 68</title>
<ellipse fill="white" stroke="white" cx="666" cy="-378" rx="42.4939" ry="18"/>
<text text-anchor="middle" x="666" y="-374.3" font-family="Times,serif" font-size="14.00">Algol 68</text>
</g>
<!-- Algol 60&#45;&gt;Algol 68 -->
<g id="edge37" class="edge"><title>Algol 60&#45;&gt;Algol 68</title>
<path fill="none" stroke="black" d="M591.086,-248.764C606.001,-258.089 624.245,-271.67 636,-288 649.281,-306.449 656.994,-331.199 661.264,-349.916"/>
<polygon fill="black" stroke="black" points="657.875,-350.807 663.347,-359.88 664.727,-349.375 657.875,-350.807"/>
</g>
<!-- Simula (1962) -->
<g id="node28" class="node"><title>Simula (1962)</title>
<ellipse fill="white" stroke="white" cx="566" cy="-306" rx="61.99" ry="18"/>
<text text-anchor="middle" x="566" y="-302.3" font-family="Times,serif" font-size="14.00">Simula (1962)</text>
</g>
<!-- Algol 60&#45;&gt;Simula (1962) -->
<g id="edge33" class="edge"><title>Algol 60&#45;&gt;Simula (1962)</title>
<path fill="none" stroke="black" d="M566,-252.303C566,-260.017 566,-269.288 566,-277.888"/>
<polygon fill="black" stroke="black" points="562.5,-277.896 566,-287.896 569.5,-277.896 562.5,-277.896"/>
</g>
<!-- Pascal (1970) -->
<g id="node30" class="node"><title>Pascal (1970)</title>
<ellipse fill="white" stroke="white" cx="754" cy="-450" rx="59.2899" ry="18"/>
<text text-anchor="middle" x="754" y="-446.3" font-family="Times,serif" font-size="14.00">Pascal (1970)</text>
</g>
<!-- Algol 60&#45;&gt;Pascal (1970) -->
<g id="edge38" class="edge"><title>Algol 60&#45;&gt;Pascal (1970)</title>
<path fill="none" stroke="black" d="M594.196,-247.599C613.605,-257.068 639.332,-271.254 659,-288 690.287,-314.639 696.013,-324.673 717,-360 728.772,-379.815 738.587,-404.071 745.143,-422.253"/>
<polygon fill="black" stroke="black" points="741.92,-423.639 748.53,-431.92 748.527,-421.325 741.92,-423.639"/>
</g>
<!-- BCPL (1966) -->
<g id="node3" class="node"><title>BCPL (1966)</title>
<ellipse fill="white" stroke="white" cx="434" cy="-378" rx="58.4896" ry="18"/>
<text text-anchor="middle" x="434" y="-374.3" font-family="Times,serif" font-size="14.00">BCPL (1966)</text>
</g>
<!-- CPL (1963)&#45;&gt;BCPL (1966) -->
<g id="edge2" class="edge"><title>CPL (1963)&#45;&gt;BCPL (1966)</title>
<path fill="none" stroke="black" d="M434,-324.303C434,-332.017 434,-341.288 434,-349.888"/>
<polygon fill="black" stroke="black" points="430.5,-349.896 434,-359.896 437.5,-349.896 430.5,-349.896"/>
</g>
<!-- C (1972) -->
<g id="node4" class="node"><title>C (1972)</title>
<ellipse fill="white" stroke="white" cx="399" cy="-450" rx="42.4939" ry="18"/>
<text text-anchor="middle" x="399" y="-446.3" font-family="Times,serif" font-size="14.00">C (1972)</text>
</g>
<!-- BCPL (1966)&#45;&gt;C (1972) -->
<g id="edge3" class="edge"><title>BCPL (1966)&#45;&gt;C (1972)</title>
<path fill="none" stroke="black" d="M425.527,-395.945C421.443,-404.113 416.456,-414.088 411.912,-423.176"/>
<polygon fill="black" stroke="black" points="408.736,-421.701 407.395,-432.211 414.997,-424.832 408.736,-421.701"/>
</g>
<!-- C++ (1983) -->
<g id="node5" class="node"><title>C++ (1983)</title>
<ellipse fill="white" stroke="white" cx="470" cy="-594" rx="53.0913" ry="18"/>
<text text-anchor="middle" x="470" y="-590.3" font-family="Times,serif" font-size="14.00">C++ (1983)</text>
</g>
<!-- C (1972)&#45;&gt;C++ (1983) -->
<g id="edge4" class="edge"><title>C (1972)&#45;&gt;C++ (1983)</title>
<path fill="none" stroke="black" d="M407.423,-467.847C419.7,-492.4 442.614,-538.227 457.046,-567.092"/>
<polygon fill="black" stroke="black" points="453.985,-568.796 461.588,-576.175 460.246,-565.665 453.985,-568.796"/>
</g>
<!-- Ratfor (1976) -->
<g id="node7" class="node"><title>Ratfor (1976)</title>
<ellipse fill="white" stroke="white" cx="204" cy="-522" rx="59.2899" ry="18"/>
<text text-anchor="middle" x="204" y="-518.3" font-family="Times,serif" font-size="14.00">Ratfor (1976)</text>
</g>
<!-- C (1972)&#45;&gt;Ratfor (1976) -->
<g id="edge6" class="edge"><title>C (1972)&#45;&gt;Ratfor (1976)</title>
<path fill="none" stroke="black" d="M367.67,-462.247C336.081,-473.586 286.946,-491.224 250.75,-504.218"/>
<polygon fill="black" stroke="black" points="249.138,-501.078 240.909,-507.751 251.504,-507.666 249.138,-501.078"/>
</g>
<!-- C89, C90 -->
<g id="node8" class="node"><title>C89, C90</title>
<ellipse fill="white" stroke="white" cx="434" cy="-666" rx="44.6926" ry="18"/>
<text text-anchor="middle" x="434" y="-662.3" font-family="Times,serif" font-size="14.00">C89, C90</text>
</g>
<!-- C (1972)&#45;&gt;C89, C90 -->
<g id="edge7" class="edge"><title>C (1972)&#45;&gt;C89, C90</title>
<path fill="none" stroke="black" d="M397.747,-468.267C396.068,-498.122 394.675,-561.084 408,-612 410.413,-621.221 414.504,-630.737 418.736,-639.117"/>
<polygon fill="black" stroke="black" points="415.692,-640.847 423.491,-648.018 421.866,-637.549 415.692,-640.847"/>
</g>
<!-- C++ (1983)&#45;&gt;C89, C90 -->
<g id="edge8" class="edge"><title>C++ (1983)&#45;&gt;C89, C90</title>
<path fill="none" stroke="black" d="M461.285,-611.945C457.085,-620.113 451.955,-630.088 447.281,-639.176"/>
<polygon fill="black" stroke="black" points="444.095,-637.717 442.634,-648.211 450.32,-640.919 444.095,-637.717"/>
</g>
<!-- C++98 -->
<g id="node10" class="node"><title>C++98</title>
<ellipse fill="white" stroke="white" cx="506" cy="-738" rx="36.2938" ry="18"/>
<text text-anchor="middle" x="506" y="-734.3" font-family="Times,serif" font-size="14.00">C++98</text>
</g>
<!-- C++ (1983)&#45;&gt;C++98 -->
<g id="edge11" class="edge"><title>C++ (1983)&#45;&gt;C++98</title>
<path fill="none" stroke="black" d="M475.951,-612.057C479.433,-622.384 483.766,-635.861 487,-648 492.456,-668.482 497.412,-691.938 500.893,-709.627"/>
<polygon fill="black" stroke="black" points="497.528,-710.663 502.861,-719.817 504.401,-709.335 497.528,-710.663"/>
</g>
<!-- Algol 68&#45;&gt;C (1972) -->
<g id="edge5" class="edge"><title>Algol 68&#45;&gt;C (1972)</title>
<path fill="none" stroke="black" d="M633.938,-389.895C627.37,-392.01 620.483,-394.144 614,-396 556.224,-412.541 488.84,-428.643 445.125,-438.675"/>
<polygon fill="black" stroke="black" points="444.326,-435.267 435.356,-440.906 445.884,-442.092 444.326,-435.267"/>
</g>
<!-- Ada (1983) -->
<g id="node34" class="node"><title>Ada (1983)</title>
<ellipse fill="white" stroke="white" cx="654" cy="-594" rx="51.1914" ry="18"/>
<text text-anchor="middle" x="654" y="-590.3" font-family="Times,serif" font-size="14.00">Ada (1983)</text>
</g>
<!-- Algol 68&#45;&gt;Ada (1983) -->
<g id="edge42" class="edge"><title>Algol 68&#45;&gt;Ada (1983)</title>
<path fill="none" stroke="black" d="M665.038,-396.151C662.963,-433.168 658.048,-520.819 655.536,-565.614"/>
<polygon fill="black" stroke="black" points="652.032,-565.587 654.966,-575.768 659.021,-565.979 652.032,-565.587"/>
</g>
<!-- C99, C11 -->
<g id="node9" class="node"><title>C99, C11</title>
<ellipse fill="white" stroke="white" cx="407" cy="-738" rx="44.6926" ry="18"/>
<text text-anchor="middle" x="407" y="-734.3" font-family="Times,serif" font-size="14.00">C99, C11</text>
</g>
<!-- C89, C90&#45;&gt;C99, C11 -->
<g id="edge9" class="edge"><title>C89, C90&#45;&gt;C99, C11</title>
<path fill="none" stroke="black" d="M427.464,-683.945C424.425,-691.824 420.738,-701.383 417.335,-710.206"/>
<polygon fill="black" stroke="black" points="413.997,-709.135 413.663,-719.725 420.528,-711.654 413.997,-709.135"/>
</g>
<!-- C89, C90&#45;&gt;C++98 -->
<g id="edge10" class="edge"><title>C89, C90&#45;&gt;C++98</title>
<path fill="none" stroke="black" d="M450.338,-682.884C459.953,-692.232 472.268,-704.205 482.869,-714.511"/>
<polygon fill="black" stroke="black" points="480.612,-717.199 490.222,-721.66 485.491,-712.18 480.612,-717.199"/>
</g>
<!-- C++11 -->
<g id="node11" class="node"><title>C++11</title>
<ellipse fill="white" stroke="white" cx="431" cy="-810" rx="36.2938" ry="18"/>
<text text-anchor="middle" x="431" y="-806.3" font-family="Times,serif" font-size="14.00">C++11</text>
</g>
<!-- C99, C11&#45;&gt;C++11 -->
<g id="edge13" class="edge"><title>C99, C11&#45;&gt;C++11</title>
<path fill="none" stroke="black" d="M412.81,-755.945C415.551,-763.941 418.887,-773.669 421.949,-782.6"/>
<polygon fill="black" stroke="black" points="418.69,-783.887 425.244,-792.211 425.311,-781.616 418.69,-783.887"/>
</g>
<!-- C++98&#45;&gt;C++11 -->
<g id="edge12" class="edge"><title>C++98&#45;&gt;C++11</title>
<path fill="none" stroke="black" d="M489.726,-754.189C479.505,-763.729 466.147,-776.197 454.753,-786.83"/>
<polygon fill="black" stroke="black" points="452.165,-784.459 447.242,-793.841 456.941,-789.576 452.165,-784.459"/>
</g>
<!-- COBOL 2002 -->
<g id="node15" class="node"><title>COBOL 2002</title>
<ellipse fill="white" stroke="white" cx="570" cy="-810" rx="60.3893" ry="18"/>
<text text-anchor="middle" x="570" y="-806.3" font-family="Times,serif" font-size="14.00">COBOL 2002</text>
</g>
<!-- C++98&#45;&gt;COBOL 2002 -->
<g id="edge17" class="edge"><title>C++98&#45;&gt;COBOL 2002</title>
<path fill="none" stroke="black" d="M520.523,-754.884C528.554,-763.669 538.705,-774.771 547.719,-784.63"/>
<polygon fill="black" stroke="black" points="545.312,-787.184 554.642,-792.203 550.478,-782.461 545.312,-787.184"/>
</g>
<!-- FLOW&#45;MATIC (1955) -->
<g id="node12" class="node"><title>FLOW&#45;MATIC (1955)</title>
<ellipse fill="white" stroke="white" cx="824" cy="-18" rx="93.6835" ry="18"/>
<text text-anchor="middle" x="824" y="-14.3" font-family="Times,serif" font-size="14.00">FLOW&#45;MATIC (1955)</text>
</g>
<!-- COBOL (1960) -->
<g id="node13" class="node"><title>COBOL (1960)</title>
<ellipse fill="white" stroke="white" cx="824" cy="-162" rx="66.0889" ry="18"/>
<text text-anchor="middle" x="824" y="-158.3" font-family="Times,serif" font-size="14.00">COBOL (1960)</text>
</g>
<!-- FLOW&#45;MATIC (1955)&#45;&gt;COBOL (1960) -->
<g id="edge14" class="edge"><title>FLOW&#45;MATIC (1955)&#45;&gt;COBOL (1960)</title>
<path fill="none" stroke="black" d="M824,-36.1285C824,-60.3298 824,-104.789 824,-133.607"/>
<polygon fill="black" stroke="black" points="820.5,-133.811 824,-143.811 827.5,-133.811 820.5,-133.811"/>
</g>
<!-- COBOL&#45;85 -->
<g id="node14" class="node"><title>COBOL&#45;85</title>
<ellipse fill="white" stroke="white" cx="941" cy="-594" rx="51.9908" ry="18"/>
<text text-anchor="middle" x="941" y="-590.3" font-family="Times,serif" font-size="14.00">COBOL&#45;85</text>
</g>
<!-- COBOL (1960)&#45;&gt;COBOL&#45;85 -->
<g id="edge15" class="edge"><title>COBOL (1960)&#45;&gt;COBOL&#45;85</title>
<path fill="none" stroke="black" d="M849.966,-178.679C884.435,-201.701 941,-248.141 941,-305 941,-305 941,-305 941,-451 941,-491.004 941,-537.347 941,-565.92"/>
<polygon fill="black" stroke="black" points="937.5,-565.951 941,-575.951 944.5,-565.951 937.5,-565.951"/>
</g>
<!-- PL/I (1964) -->
<g id="node17" class="node"><title>PL/I (1964)</title>
<ellipse fill="white" stroke="white" cx="678" cy="-234" rx="51.9908" ry="18"/>
<text text-anchor="middle" x="678" y="-230.3" font-family="Times,serif" font-size="14.00">PL/I (1964)</text>
</g>
<!-- COBOL (1960)&#45;&gt;PL/I (1964) -->
<g id="edge19" class="edge"><title>COBOL (1960)&#45;&gt;PL/I (1964)</title>
<path fill="none" stroke="black" d="M792.679,-178.017C770.341,-188.727 740.171,-203.192 716.383,-214.597"/>
<polygon fill="black" stroke="black" points="714.785,-211.482 707.281,-218.961 717.811,-217.794 714.785,-211.482"/>
</g>
<!-- COBOL&#45;85&#45;&gt;COBOL 2002 -->
<g id="edge16" class="edge"><title>COBOL&#45;85&#45;&gt;COBOL 2002</title>
<path fill="none" stroke="black" d="M921.223,-610.828C897.469,-629.475 856.054,-660.845 818,-684 747.96,-726.617 661.549,-767.768 611.416,-790.599"/>
<polygon fill="black" stroke="black" points="609.852,-787.465 602.189,-794.781 612.742,-793.841 609.852,-787.465"/>
</g>
<!-- Smalltalk (1972) -->
<g id="node16" class="node"><title>Smalltalk (1972)</title>
<ellipse fill="white" stroke="white" cx="568" cy="-450" rx="70.6878" ry="18"/>
<text text-anchor="middle" x="568" y="-446.3" font-family="Times,serif" font-size="14.00">Smalltalk (1972)</text>
</g>
<!-- Smalltalk (1972)&#45;&gt;COBOL 2002 -->
<g id="edge18" class="edge"><title>Smalltalk (1972)&#45;&gt;COBOL 2002</title>
<path fill="none" stroke="black" d="M568.395,-468.048C568.978,-494.706 570,-547.881 570,-593 570,-593 570,-593 570,-667 570,-707.004 570,-753.347 570,-781.92"/>
<polygon fill="black" stroke="black" points="566.5,-781.951 570,-791.951 573.5,-781.951 566.5,-781.951"/>
</g>
<!-- Fortran II (1958) -->
<g id="node18" class="node"><title>Fortran II (1958)</title>
<ellipse fill="white" stroke="white" cx="373" cy="-162" rx="70.6878" ry="18"/>
<text text-anchor="middle" x="373" y="-158.3" font-family="Times,serif" font-size="14.00">Fortran II (1958)</text>
</g>
<!-- Fortran II (1958)&#45;&gt;PL/I (1964) -->
<g id="edge20" class="edge"><title>Fortran II (1958)&#45;&gt;PL/I (1964)</title>
<path fill="none" stroke="black" d="M426.996,-173.793C476.578,-183.925 551.991,-199.895 617,-216 621.142,-217.026 625.43,-218.132 629.725,-219.269"/>
<polygon fill="black" stroke="black" points="629.126,-222.733 639.692,-221.959 630.949,-215.975 629.126,-222.733"/>
</g>
<!-- Fortran IV (1966) -->
<g id="node22" class="node"><title>Fortran IV (1966)</title>
<ellipse fill="white" stroke="white" cx="141" cy="-378" rx="74.187" ry="18"/>
<text text-anchor="middle" x="141" y="-374.3" font-family="Times,serif" font-size="14.00">Fortran IV (1966)</text>
</g>
<!-- Fortran II (1958)&#45;&gt;Fortran IV (1966) -->
<g id="edge24" class="edge"><title>Fortran II (1958)&#45;&gt;Fortran IV (1966)</title>
<path fill="none" stroke="black" d="M355.181,-179.437C314.273,-217.17 213.53,-310.098 166.258,-353.701"/>
<polygon fill="black" stroke="black" points="163.858,-351.154 158.88,-360.507 168.604,-356.3 163.858,-351.154"/>
</g>
<!-- BASIC (1964) -->
<g id="node26" class="node"><title>BASIC (1964)</title>
<ellipse fill="white" stroke="white" cx="295" cy="-378" rx="62.2891" ry="18"/>
<text text-anchor="middle" x="295" y="-374.3" font-family="Times,serif" font-size="14.00">BASIC (1964)</text>
</g>
<!-- Fortran II (1958)&#45;&gt;BASIC (1964) -->
<g id="edge29" class="edge"><title>Fortran II (1958)&#45;&gt;BASIC (1964)</title>
<path fill="none" stroke="black" d="M366.749,-180.151C353.166,-217.417 320.879,-305.998 304.655,-350.51"/>
<polygon fill="black" stroke="black" points="301.309,-349.471 301.173,-360.065 307.886,-351.868 301.309,-349.471"/>
</g>
<!-- Algol (1958) -->
<g id="node19" class="node"><title>Algol (1958)</title>
<ellipse fill="white" stroke="white" cx="566" cy="-162" rx="56.59" ry="18"/>
<text text-anchor="middle" x="566" y="-158.3" font-family="Times,serif" font-size="14.00">Algol (1958)</text>
</g>
<!-- Algol (1958)&#45;&gt;Algol 60 -->
<g id="edge32" class="edge"><title>Algol (1958)&#45;&gt;Algol 60</title>
<path fill="none" stroke="black" d="M566,-180.303C566,-188.017 566,-197.288 566,-205.888"/>
<polygon fill="black" stroke="black" points="562.5,-205.896 566,-215.896 569.5,-205.896 562.5,-205.896"/>
</g>
<!-- Algol (1958)&#45;&gt;PL/I (1964) -->
<g id="edge21" class="edge"><title>Algol (1958)&#45;&gt;PL/I (1964)</title>
<path fill="none" stroke="black" d="M590.579,-178.362C606.591,-188.369 627.669,-201.543 645.117,-212.448"/>
<polygon fill="black" stroke="black" points="643.529,-215.583 653.864,-217.915 647.239,-209.647 643.529,-215.583"/>
</g>
<!-- Speedcoding (1953) -->
<g id="node20" class="node"><title>Speedcoding (1953)</title>
<ellipse fill="white" stroke="white" cx="469" cy="-18" rx="81.7856" ry="18"/>
<text text-anchor="middle" x="469" y="-14.3" font-family="Times,serif" font-size="14.00">Speedcoding (1953)</text>
</g>
<!-- Fortran (1955) -->
<g id="node21" class="node"><title>Fortran (1955)</title>
<ellipse fill="white" stroke="white" cx="469" cy="-90" rx="62.2891" ry="18"/>
<text text-anchor="middle" x="469" y="-86.3" font-family="Times,serif" font-size="14.00">Fortran (1955)</text>
</g>
<!-- Speedcoding (1953)&#45;&gt;Fortran (1955) -->
<g id="edge22" class="edge"><title>Speedcoding (1953)&#45;&gt;Fortran (1955)</title>
<path fill="none" stroke="black" d="M469,-36.3034C469,-44.0173 469,-53.2875 469,-61.8876"/>
<polygon fill="black" stroke="black" points="465.5,-61.8956 469,-71.8957 472.5,-61.8957 465.5,-61.8956"/>
</g>
<!-- Fortran (1955)&#45;&gt;Fortran II (1958) -->
<g id="edge23" class="edge"><title>Fortran (1955)&#45;&gt;Fortran II (1958)</title>
<path fill="none" stroke="black" d="M447.216,-106.884C434.389,-116.237 417.958,-128.218 403.819,-138.528"/>
<polygon fill="black" stroke="black" points="401.382,-135.973 395.364,-144.693 405.506,-141.629 401.382,-135.973"/>
</g>
<!-- Fortran (1955)&#45;&gt;Algol (1958) -->
<g id="edge31" class="edge"><title>Fortran (1955)&#45;&gt;Algol (1958)</title>
<path fill="none" stroke="black" d="M491.011,-106.884C504.281,-116.461 521.368,-128.791 535.879,-139.263"/>
<polygon fill="black" stroke="black" points="533.919,-142.165 544.076,-145.179 538.015,-136.489 533.919,-142.165"/>
</g>
<!-- Fortran IV (1966)&#45;&gt;Ratfor (1976) -->
<g id="edge26" class="edge"><title>Fortran IV (1966)&#45;&gt;Ratfor (1976)</title>
<path fill="none" stroke="black" d="M148.599,-396.129C159.431,-420.543 179.41,-465.574 192.183,-494.365"/>
<polygon fill="black" stroke="black" points="189.119,-496.089 196.374,-503.811 195.518,-493.251 189.119,-496.089"/>
</g>
<!-- Fortran 77 -->
<g id="node23" class="node"><title>Fortran 77</title>
<ellipse fill="white" stroke="white" cx="79" cy="-522" rx="48.1917" ry="18"/>
<text text-anchor="middle" x="79" y="-518.3" font-family="Times,serif" font-size="14.00">Fortran 77</text>
</g>
<!-- Fortran IV (1966)&#45;&gt;Fortran 77 -->
<g id="edge25" class="edge"><title>Fortran IV (1966)&#45;&gt;Fortran 77</title>
<path fill="none" stroke="black" d="M133.521,-396.129C122.862,-420.543 103.2,-465.574 90.6294,-494.365"/>
<polygon fill="black" stroke="black" points="87.2991,-493.246 86.5052,-503.811 93.7142,-496.047 87.2991,-493.246"/>
</g>
<!-- Fortran 90, 95 -->
<g id="node24" class="node"><title>Fortran 90, 95</title>
<ellipse fill="white" stroke="white" cx="79" cy="-666" rx="61.99" ry="18"/>
<text text-anchor="middle" x="79" y="-662.3" font-family="Times,serif" font-size="14.00">Fortran 90, 95</text>
</g>
<!-- Fortran 77&#45;&gt;Fortran 90, 95 -->
<g id="edge27" class="edge"><title>Fortran 77&#45;&gt;Fortran 90, 95</title>
<path fill="none" stroke="black" d="M79,-540.129C79,-564.33 79,-608.789 79,-637.607"/>
<polygon fill="black" stroke="black" points="75.5001,-637.811 79,-647.811 82.5001,-637.811 75.5001,-637.811"/>
</g>
<!-- Fortran 2003, 2008 -->
<g id="node25" class="node"><title>Fortran 2003, 2008</title>
<ellipse fill="white" stroke="white" cx="79" cy="-738" rx="79.0865" ry="18"/>
<text text-anchor="middle" x="79" y="-734.3" font-family="Times,serif" font-size="14.00">Fortran 2003, 2008</text>
</g>
<!-- Fortran 90, 95&#45;&gt;Fortran 2003, 2008 -->
<g id="edge28" class="edge"><title>Fortran 90, 95&#45;&gt;Fortran 2003, 2008</title>
<path fill="none" stroke="black" d="M79,-684.303C79,-692.017 79,-701.288 79,-709.888"/>
<polygon fill="black" stroke="black" points="75.5001,-709.896 79,-719.896 82.5001,-709.896 75.5001,-709.896"/>
</g>
<!-- Visual Basic (1991) -->
<g id="node27" class="node"><title>Visual Basic (1991)</title>
<ellipse fill="white" stroke="white" cx="290" cy="-666" rx="81.4863" ry="18"/>
<text text-anchor="middle" x="290" y="-662.3" font-family="Times,serif" font-size="14.00">Visual Basic (1991)</text>
</g>
<!-- BASIC (1964)&#45;&gt;Visual Basic (1991) -->
<g id="edge30" class="edge"><title>BASIC (1964)&#45;&gt;Visual Basic (1991)</title>
<path fill="none" stroke="black" d="M294.702,-396.034C293.869,-443.709 291.507,-578.815 290.483,-637.37"/>
<polygon fill="black" stroke="black" points="286.978,-637.634 290.303,-647.694 293.977,-637.756 286.978,-637.634"/>
</g>
<!-- Simula 67 -->
<g id="node29" class="node"><title>Simula 67</title>
<ellipse fill="white" stroke="white" cx="558" cy="-378" rx="47.3916" ry="18"/>
<text text-anchor="middle" x="558" y="-374.3" font-family="Times,serif" font-size="14.00">Simula 67</text>
</g>
<!-- Simula (1962)&#45;&gt;Simula 67 -->
<g id="edge34" class="edge"><title>Simula (1962)&#45;&gt;Simula 67</title>
<path fill="none" stroke="black" d="M564.022,-324.303C563.141,-332.017 562.081,-341.288 561.099,-349.888"/>
<polygon fill="black" stroke="black" points="557.613,-349.563 559.955,-359.896 564.568,-350.358 557.613,-349.563"/>
</g>
<!-- Simula 67&#45;&gt;C++ (1983) -->
<g id="edge35" class="edge"><title>Simula 67&#45;&gt;C++ (1983)</title>
<path fill="none" stroke="black" d="M530.233,-392.779C515.145,-401.789 497.645,-415.039 488,-432 464.164,-473.917 464.181,-531.9 466.793,-565.629"/>
<polygon fill="black" stroke="black" points="463.315,-566.034 467.705,-575.677 470.287,-565.402 463.315,-566.034"/>
</g>
<!-- Simula 67&#45;&gt;Smalltalk (1972) -->
<g id="edge36" class="edge"><title>Simula 67&#45;&gt;Smalltalk (1972)</title>
<path fill="none" stroke="black" d="M560.472,-396.303C561.574,-404.017 562.898,-413.288 564.127,-421.888"/>
<polygon fill="black" stroke="black" points="560.677,-422.491 565.557,-431.896 567.607,-421.501 560.677,-422.491"/>
</g>
<!-- Modula&#45;2 (1978) -->
<g id="node31" class="node"><title>Modula&#45;2 (1978)</title>
<ellipse fill="white" stroke="white" cx="842" cy="-522" rx="71.4873" ry="18"/>
<text text-anchor="middle" x="842" y="-518.3" font-family="Times,serif" font-size="14.00">Modula&#45;2 (1978)</text>
</g>
<!-- Pascal (1970)&#45;&gt;Modula&#45;2 (1978) -->
<g id="edge39" class="edge"><title>Pascal (1970)&#45;&gt;Modula&#45;2 (1978)</title>
<path fill="none" stroke="black" d="M774.41,-467.235C785.989,-476.446 800.662,-488.118 813.376,-498.231"/>
<polygon fill="black" stroke="black" points="811.391,-501.124 821.396,-504.61 815.749,-495.646 811.391,-501.124"/>
</g>
<!-- Delphi (1995) -->
<g id="node33" class="node"><title>Delphi (1995)</title>
<ellipse fill="white" stroke="white" cx="749" cy="-666" rx="60.3893" ry="18"/>
<text text-anchor="middle" x="749" y="-662.3" font-family="Times,serif" font-size="14.00">Delphi (1995)</text>
</g>
<!-- Pascal (1970)&#45;&gt;Delphi (1995) -->
<g id="edge41" class="edge"><title>Pascal (1970)&#45;&gt;Delphi (1995)</title>
<path fill="none" stroke="black" d="M753.599,-468.151C752.734,-505.168 750.686,-592.819 749.64,-637.614"/>
<polygon fill="black" stroke="black" points="746.137,-637.688 749.403,-647.768 753.135,-637.852 746.137,-637.688"/>
</g>
<!-- Modula&#45;3 -->
<g id="node32" class="node"><title>Modula&#45;3</title>
<ellipse fill="white" stroke="white" cx="825" cy="-594" rx="46.2923" ry="18"/>
<text text-anchor="middle" x="825" y="-590.3" font-family="Times,serif" font-size="14.00">Modula&#45;3</text>
</g>
<!-- Modula&#45;2 (1978)&#45;&gt;Modula&#45;3 -->
<g id="edge40" class="edge"><title>Modula&#45;2 (1978)&#45;&gt;Modula&#45;3</title>
<path fill="none" stroke="black" d="M837.798,-540.303C835.904,-548.102 833.623,-557.491 831.516,-566.171"/>
<polygon fill="black" stroke="black" points="828.113,-565.352 829.154,-575.896 834.915,-567.004 828.113,-565.352"/>
</g>
<!-- Ada 95 -->
<g id="node35" class="node"><title>Ada 95</title>
<ellipse fill="white" stroke="white" cx="634" cy="-666" rx="36.2938" ry="18"/>
<text text-anchor="middle" x="634" y="-662.3" font-family="Times,serif" font-size="14.00">Ada 95</text>
</g>
<!-- Ada (1983)&#45;&gt;Ada 95 -->
<g id="edge43" class="edge"><title>Ada (1983)&#45;&gt;Ada 95</title>
<path fill="none" stroke="black" d="M649.159,-611.945C646.932,-619.739 644.235,-629.178 641.737,-637.921"/>
<polygon fill="black" stroke="black" points="638.318,-637.148 638.936,-647.725 645.048,-639.071 638.318,-637.148"/>
</g>
</g>
</svg>
